<?xml version="1.0" encoding="iso-8859-1"?>
<!-- Uploaded to: SVG Repo, www.svgrepo.com, Generator: SVG Repo Mixer Tools -->
<svg fill="#000000" height="800px" width="800px" version="1.1" id="Layer_1" xmlns="http://www.w3.org/2000/svg" xmlns:xlink="http://www.w3.org/1999/xlink" 
	 viewBox="0 0 512 512" xml:space="preserve">
<g>
	<g>
		<path d="M437.019,74.981C388.668,26.629,324.381,0,256,0S123.332,26.629,74.981,74.981C26.629,123.332,0,187.619,0,256
			s26.629,132.668,74.981,181.019C123.332,485.371,187.619,512,256,512s132.668-26.629,181.019-74.981
			C485.371,388.668,512,324.381,512,256S485.371,123.332,437.019,74.981z M345.302,77.395c0-7.272,1.431-14.303,4.187-20.82
			c51.027,24.018,91.401,67.048,111.934,119.912c-4.815,1.391-9.83,2.118-14.911,2.118h-47.628
			c-29.546,0-53.581-24.037-53.581-53.581V77.395z M184.558,47.62v0.008h23.814c9.848,0,17.86,8.012,17.86,17.86v47.628
			c0,9.848-8.012,17.86-17.86,17.86c-42.676,0-77.395,34.72-77.395,77.395v11.907c0,29.545,24.037,53.581,53.581,53.581
			c9.848,0,17.86,8.012,17.86,17.86v83.349c0,9.848-8.012,17.86-17.86,17.86c-9.848,0-17.86-8.012-17.86-17.86v-11.907
			c0-29.545-24.037-53.581-53.581-53.581c-39.643,0-72.444-29.377-76.876-68.55C42.304,151.108,102.568,75.808,184.558,47.62z
			 M256,476.279c-97.952,0-181.16-64.27-209.709-152.85c19.308,14.163,42.615,21.873,66.826,21.873c9.848,0,17.86,8.012,17.86,17.86
			v11.907c0,29.545,24.037,53.581,53.581,53.581c29.545,0,53.581-24.037,53.581-53.581v-83.349
			c0-29.545-24.037-53.581-53.581-53.581c-9.848,0-17.86-8.012-17.86-17.86v-11.907c0-22.979,18.695-41.674,41.674-41.674
			c29.545,0,53.581-24.037,53.581-53.581V65.488c0-10.99-3.33-21.216-9.029-29.728c1.024-0.014,2.047-0.039,3.076-0.039
			c20.798,0,40.929,2.901,60.016,8.311c-4.232,10.491-6.435,21.743-6.435,33.363v47.628c0,49.241,40.061,89.302,89.302,89.302
			h47.628c8.542,0,16.982-1.228,25.082-3.595c2.872,13.698,4.46,27.86,4.648,42.354c-5.622-1.977-11.631-3.039-17.824-3.039h-119.07
			c-29.546,0-53.581,24.037-53.581,53.581c0,29.545,24.035,53.581,53.581,53.581c9.849,0,17.86,8.012,17.86,17.86v23.814
			c0,16.6,7.588,31.461,19.479,41.297C342,462.986,300.526,476.279,256,476.279z M406.911,416.307
			c-7.988-1.778-13.981-8.909-13.981-17.423V375.07c0-29.545-24.035-53.581-53.581-53.581c-9.849,0-17.86-8.012-17.86-17.86
			c0-9.848,8.011-17.86,17.86-17.86h119.07c5.937,0,11.37,2.921,14.665,7.663C464.826,341.468,440.963,384.233,406.911,416.307z"/>
	</g>
</g>
</svg>